<svg width="56" height="55" xmlns="http://www.w3.org/2000/svg" xmlns:xlink="http://www.w3.org/1999/xlink" xml:space="preserve" overflow="hidden"><g transform="translate(-516 -201)"><path d="M17.1875 8.02083 16.0417 8.02083 16.0417 46.9918 38.9583 46.9918 38.9583 8.02083 17.1875 8.02083ZM37.8125 45.8459 17.1875 45.8459 17.1875 9.16667 37.8125 9.16667Z" fill="#231691" transform="matrix(1.01818 0 0 1 516 201)"/><path d="M40.6771 2.29167 14.3229 2.29167C13.6909 2.29355 13.179 2.80546 13.1771 3.4375L13.1771 51.5768C13.1793 52.2088 13.691 52.7205 14.3229 52.7227L40.6771 52.7227C41.3088 52.7201 41.8204 52.2086 41.8229 51.5768L41.8229 3.4375C41.8207 2.80559 41.309 2.29387 40.6771 2.29167ZM40.6771 51.5768 14.3229 51.5768 14.3229 3.4375 40.6771 3.4375Z" fill="#231691" transform="matrix(1.01818 0 0 1 516 201)"/><path d="M25.2083 6.30208 30.3646 6.30208C30.681 6.30208 30.9375 6.04559 30.9375 5.72917 30.9375 5.41275 30.681 5.15625 30.3646 5.15625L25.2083 5.15625C24.8919 5.15625 24.6354 5.41275 24.6354 5.72917 24.6354 6.04559 24.8919 6.30208 25.2083 6.30208Z" fill="#231691" transform="matrix(1.01818 0 0 1 516 201)"/></g></svg>