<svg width="56" height="56" xmlns="http://www.w3.org/2000/svg" xmlns:xlink="http://www.w3.org/1999/xlink" xml:space="preserve" overflow="hidden"><g transform="translate(-516 -275)"><path d="M549.862 278.357C549.562 278.239 549.223 278.387 549.106 278.687 548.988 278.987 549.136 279.326 549.435 279.443 560.384 283.734 565.78 296.088 561.489 307.036 557.198 317.985 544.844 323.381 533.896 319.09 533.596 318.972 533.258 319.12 533.14 319.42 533.022 319.72 533.17 320.058 533.47 320.176 535.898 321.129 538.475 321.649 541.083 321.713L541.083 325.808 533.792 325.808C532.503 325.808 531.458 326.853 531.458 328.142L532.625 328.142C532.625 327.497 533.147 326.975 533.792 326.975L549.542 326.975C550.186 326.975 550.708 327.497 550.708 328.142L551.875 328.142C551.875 326.853 550.83 325.808 549.542 325.808L542.25 325.808 542.25 321.703C554.644 321.387 564.436 311.083 564.12 298.689 563.889 289.661 558.272 281.649 549.862 278.357Z" fill="#231691"/><path d="M527.375 328.725 555.958 328.725 555.958 329.892 527.375 329.892Z" fill="#231691"/><path d="M534.451 316.798C544.134 320.783 555.213 316.164 559.198 306.481 563.183 296.799 558.564 285.719 548.881 281.735 539.199 277.75 528.119 282.369 524.135 292.051 520.117 301.655 524.646 312.698 534.25 316.715 534.317 316.743 534.384 316.771 534.451 316.798ZM542.428 298.948 548.763 283.556C551.823 288.812 552.234 295.719 549.83 301.994ZM549.386 303.073C546.676 309.222 541.522 313.839 535.65 315.419L541.984 300.028ZM541.349 298.508 533.947 295.459C536.657 289.31 541.811 284.693 547.684 283.113ZM540.908 299.584 534.57 314.976C531.511 309.721 531.1 302.813 533.503 296.538ZM536.662 316.34C542.583 314.496 547.725 309.751 550.464 303.519L557.883 306.572C554.23 314.659 545.181 318.824 536.662 316.34ZM558.328 305.493 550.908 302.439C553.351 296.081 553.038 289.095 550.129 283.617 557.929 287.849 561.425 297.177 558.328 305.493ZM541.689 281.475C543.375 281.476 545.053 281.718 546.67 282.194 540.749 284.038 535.608 288.782 532.869 295.015L525.456 291.965C528.336 285.582 534.687 281.478 541.689 281.475ZM525.006 293.04 532.425 296.094C529.983 302.449 530.296 309.439 533.205 314.916 525.404 310.684 521.908 301.357 525.005 293.04Z" fill="#231691"/></g></svg>